<svg id="グループ_37" data-name="グループ 37" xmlns="http://www.w3.org/2000/svg" xmlns:xlink="http://www.w3.org/1999/xlink" width="691.023" height="226.29" viewBox="0 0 691.023 226.29">
  <defs>
    <clipPath id="clip-path">
      <rect id="長方形_49" data-name="長方形 49" width="691.023" height="226.29" fill="none"/>
    </clipPath>
  </defs>
  <g id="グループ_23" data-name="グループ 23">
    <g id="グループ_22" data-name="グループ 22" clip-path="url(#clip-path)">
      <path id="パス_37" data-name="パス 37" d="M147.926,136.793c7.991,0,13.419-3.618,13.419-13.87,0-8.141-4.222-12.663-12.815-12.663h-20.5c-11.307,0-21.107-6.031-21.107-21.409,0-15.528,8.9-21.257,22.162-21.257h31.058c2.411,0,5.879,1.055,5.879,4.222,0,2.713-2.714,4.22-5.729,4.22h-31.66c-9.347,0-13.569,4.373-13.569,13.117s6.031,13.116,12.966,13.116h20.655c14.322,0,20.805,9.347,20.805,20.805,0,9.95-4.674,21.71-22.012,21.71H113.855c-3.016,0-5.88-1.658-5.88-4.071,0-1.507,1.206-3.92,5.729-3.92Z" transform="translate(5.206 3.291)" fill="#fff"/>
      <path id="パス_38" data-name="パス 38" d="M198.983,98.8h42.384c7.235,0,9.95-2.413,9.95-9.8,0-8.9-6.182-13.418-17.791-13.418H222.22c-13.72,0-22.012,6.03-22.012,29.7,0,23.368,7.086,31.66,20.956,31.66h31.509c1.96,0,4.975.905,4.975,3.769,0,1.508-1.356,4.071-4.975,4.071H220.712c-24.725,0-28.494-21.257-28.494-38.9,0-34.373,16.584-38.293,29.4-38.293h13.268c15.529,0,24.423,9.046,24.423,22.464,0,9.648-4.372,16.734-16.433,16.734H199.216" transform="translate(9.36 3.291)" fill="#fff"/>
      <path id="パス_39" data-name="パス 39" d="M377.669,98.8h42.383c7.236,0,9.951-2.413,9.951-9.8,0-8.9-6.181-13.418-17.791-13.418H400.906c-13.72,0-22.011,6.03-22.011,29.7,0,23.368,7.085,31.66,20.955,31.66h31.509c1.96,0,4.975.905,4.975,3.769,0,1.508-1.356,4.071-4.975,4.071H399.4c-24.724,0-28.494-21.257-28.494-38.9,0-34.373,16.584-38.293,29.4-38.293H413.57c15.528,0,24.422,9.046,24.422,22.464,0,9.648-4.371,16.734-16.432,16.734H377.9" transform="translate(18.061 3.291)" fill="#fff"/>
      <path id="パス_40" data-name="パス 40" d="M312.434,96.811l9.5-14.895c5.427-8.141,9.648-14.322,21.86-14.322h4.824c2.111,0,6.03.6,6.03,3.919,0,2.865-2.11,4.222-8.592,4.222-8.6,0-10.856,1.055-14.625,6.785l-19,28.851V128.5c0,6.784,1.055,8.291,6.03,8.291H334.6c3.468,0,5.277,1.96,5.277,3.92,0,1.809-1.658,4.071-5.277,4.071H287.408c-2.262,0-5.579-1.206-5.579-4.071,0-3.015,3.167-3.92,5.579-3.92h9.8c7.086,0,7.237-2.111,7.237-9.5V84.931c0-7.086-1.809-9.347-7.84-9.347h-8.292c-2.864,0-6.181-1.055-6.181-4.071,0-3.467,4.523-3.919,6.181-3.919h9.8c10.1,0,14.322,6.482,14.322,14.02Z" transform="translate(13.723 3.291)" fill="#fff"/>
      <path id="パス_41" data-name="パス 41" d="M653.792,103.928H621.379c-9.045,0-15.982,6.03-15.982,15.529,0,10.553,8.745,17.488,17.79,17.488h14.625c7.539,0,15.98-3.467,15.98-16.131V91.868c0-10.856-5.428-16.283-15.98-16.283h-29.55c-2.412,0-5.126-1.206-5.126-4.071,0-3.015,2.865-3.919,5.126-3.919h31.81c14.172,0,21.862,10.4,21.862,21.71v33.77c0,13.116-7.238,21.709-21.559,21.709h-17.94c-14.927,0-25.028-11.759-25.028-25.177,0-14.171,10.252-23.669,23.821-23.669h32.564Z" transform="translate(29.09 3.291)" fill="#fff"/>
      <path id="パス_42" data-name="パス 42" d="M548.265,157.659a3.513,3.513,0,0,1-3.513-3.513v-8.609c-3.806-1.6-5.341-5.68-5.642-8.188L521.914,49.5a3.623,3.623,0,0,1,2.212-4.122,3.361,3.361,0,0,1,4.167,1.5c.343.391,2.478,2.512,8.521,2.512,4.6,0,6.932-1.228,7.938-1.987V32.582c-.148-1.074-1.058-4.28-6.406-4.294-5.475.015-6.285,3.4-6.4,4.435a3.492,3.492,0,0,1-3.772,3.2,3.536,3.536,0,0,1-3.228-3.8c.29-3.744,3.466-10.833,13.4-10.861,9.955.028,13.132,7.117,13.422,10.861.007.09.011.181.011.272V47.4c1.006.759,3.34,1.987,7.938,1.987,6.04,0,8.177-2.12,8.52-2.512a3.362,3.362,0,0,1,4.168-1.5,3.623,3.623,0,0,1,2.212,4.122L557.42,137.348c-.3,2.51-1.835,6.592-5.642,8.189v8.609a3.513,3.513,0,0,1-3.513,3.513M530.274,55.631l15.759,80.511c.021.109.037.219.048.329.051.423.417,2.711,2.183,2.711,1.894,0,2.172-2.6,2.182-2.71s.027-.221.048-.33l15.759-80.511a25.468,25.468,0,0,1-6.539.787c-5.607,0-9.234-1.465-11.451-2.916-2.217,1.451-5.843,2.916-11.451,2.916a25.469,25.469,0,0,1-6.54-.787" transform="translate(25.411 1.035)" fill="#699695"/>
      <path id="パス_43" data-name="パス 43" d="M488.056,157.659a3.513,3.513,0,0,1-3.513-3.513v-8.609c-3.806-1.6-5.341-5.68-5.642-8.188L461.706,49.5a3.623,3.623,0,0,1,2.212-4.122,3.361,3.361,0,0,1,4.168,1.5c.343.391,2.478,2.512,8.52,2.512,4.6,0,6.932-1.228,7.938-1.987V32.582c-.148-1.074-1.057-4.28-6.406-4.294-5.474.015-6.284,3.4-6.4,4.435a3.485,3.485,0,0,1-3.772,3.2,3.536,3.536,0,0,1-3.228-3.8c.289-3.744,3.464-10.833,13.4-10.861,9.957.028,13.132,7.117,13.422,10.861.007.09.01.181.01.272V47.4c1.006.759,3.34,1.987,7.938,1.987,6.042,0,8.177-2.12,8.52-2.512a3.361,3.361,0,0,1,4.167-1.5,3.623,3.623,0,0,1,2.212,4.122l-17.194,87.847c-.3,2.51-1.835,6.592-5.642,8.189v8.609a3.513,3.513,0,0,1-3.513,3.513M470.066,55.631l15.758,80.511c.021.109.037.219.048.329.051.423.417,2.711,2.183,2.711,1.894,0,2.172-2.6,2.182-2.71s.027-.221.048-.33l15.759-80.511a25.467,25.467,0,0,1-6.539.787c-5.607,0-9.234-1.465-11.451-2.916-2.217,1.451-5.843,2.916-11.451,2.916a25.467,25.467,0,0,1-6.539-.787" transform="translate(22.479 1.035)" fill="#9eb998"/>
      <path id="パス_44" data-name="パス 44" d="M547.038,141.155c5.1,0,5.679-5.879,5.679-5.879l17.223-87.991s-2.592,4.078-11.451,4.078-11.451-4.078-11.451-4.078" transform="translate(26.637 2.303)" fill="#699695"/>
      <path id="パス_45" data-name="パス 45" d="M548.1,47.285s-2.592,4.078-11.451,4.078S525.2,47.285,525.2,47.285l17.223,87.991s.581,5.879,5.68,5.879" transform="translate(25.574 2.303)" fill="#699695"/>
      <path id="パス_46" data-name="パス 46" d="M78.289,143.235c-1.268,0-1.691.141-3.24.141-6.058-.281-9.863-1.831-11.412-8.312a.451.451,0,0,0-.423-.424c-.282,0-.424.141-.7.424-4.65,6.2-13.1,9.721-21.558,9.721-11.553,0-22.825-6.763-23.247-22.825V110.991c0-.986-.141-3.8-.141-29.307,0-5.918-2.959-6.34-4.932-6.34-.7,0-.845.142-2.254.142H3.944A3.657,3.657,0,0,1,0,71.681,3.991,3.991,0,0,1,4.086,67.6h9.955c7.326,0,11.694,3.944,11.694,10.848,0,4.65-.141,10.145-.141,15.218,0,7.186.141,13.668.282,16.345v10.968c.7,11.554,8.171,16.485,16.062,16.485,9.862,0,20.43-7.327,20.852-18.881V81.684c0-3.664-.986-6.2-4.508-6.34-1.269,0-.987.142-2.818.142H49.172a3.946,3.946,0,1,1,.141-7.89h9.816c6.338,0,11.835,3.24,11.835,10.707-.142,10.286-.282,18.6-.282,26.631V115.9c0,13.808,0,18.879,5.213,19.3.986,0,1.69-.141,2.4-.141h6.434c2.394,0,3.662,1.972,3.662,4.086a3.922,3.922,0,0,1-3.8,4.086Z" transform="translate(0 3.291)" fill="#fff"/>
      <path id="パス_47" data-name="パス 47" d="M479.242,218.209c-64.472,0-125.726-16.924-168.058-46.431a3.2,3.2,0,1,1,3.659-5.25c41.285,28.777,101.206,45.282,164.4,45.282s123.116-16.5,164.4-45.282a3.2,3.2,0,0,1,3.66,5.25c-42.333,29.507-103.587,46.431-168.06,46.431" transform="translate(15.086 8.081)" fill="#a9a9a8"/>
      <path id="パス_48" data-name="パス 48" d="M236.406,45.526a3.29,3.29,0,0,1-2.322-.954C209.677,20.444,174.267,6.607,136.93,6.607S64.183,20.444,39.777,44.572a3.3,3.3,0,1,1-4.645-4.7C60.766,14.533,97.87,0,136.93,0s76.165,14.533,101.8,39.873a3.3,3.3,0,0,1-2.322,5.652" transform="translate(1.663)" fill="#a9a9a8"/>
    </g>
  </g>
  <text id="ユースレラ" transform="translate(122.698 193.111)" fill="#fff" font-size="20" font-family="HiraginoSans-W3, Hiragino Sans"><tspan x="0" y="0" letter-spacing="0.6em">ユースレ</tspan><tspan y="0">ラ</tspan></text>
  <g id="グループ_25" data-name="グループ 25">
    <g id="グループ_24" data-name="グループ 24" clip-path="url(#clip-path)">
      <path id="パス_49" data-name="パス 49" d="M488.354,141.155c5.1,0,5.679-5.879,5.679-5.879l17.223-87.991s-2.592,4.078-11.451,4.078-11.451-4.078-11.451-4.078" transform="translate(23.78 2.303)" fill="#9eb998"/>
      <path id="パス_50" data-name="パス 50" d="M489.417,47.285s-2.592,4.078-11.452,4.078-11.451-4.078-11.451-4.078l17.223,87.991s.581,5.879,5.68,5.879" transform="translate(22.717 2.303)" fill="#9eb998"/>
      <path id="パス_51" data-name="パス 51" d="M486.524,148.444h0L479.479,48.261h15.393Z" transform="translate(23.348 2.35)" fill="#9eb998"/>
      <path id="パス_52" data-name="パス 52" d="M547.211,148.444h0L540.165,48.261h15.393Z" transform="translate(26.303 2.35)" fill="#699695"/>
      <rect id="長方形_50" data-name="長方形 50" width="11.841" height="36.042" transform="translate(505.562 107.416)" fill="#9eb998"/>
    </g>
  </g>
</svg>
