<svg xmlns="http://www.w3.org/2000/svg" xmlns:xlink="http://www.w3.org/1999/xlink" width="228" height="75" viewBox="0 0 228 75">
  <defs>
    <clipPath id="clip-path">
      <rect id="長方形_41" data-name="長方形 41" width="228" height="75" transform="translate(-0.422)" fill="none"/>
    </clipPath>
  </defs>
  <g id="グループ_41" data-name="グループ 41" transform="translate(0.422)">
    <g id="グループ_16" data-name="グループ 16">
      <g id="グループ_15" data-name="グループ 15" clip-path="url(#clip-path)">
        <path id="パス_21" data-name="パス 21" d="M120.424,90.385c2.632,0,4.419-1.191,4.419-4.568,0-2.681-1.39-4.171-4.22-4.171H113.87c-3.723,0-6.951-1.986-6.951-7.05,0-5.114,2.929-7,7.3-7h10.228c.794,0,1.936.347,1.936,1.39,0,.893-.894,1.39-1.887,1.39H114.068c-3.078,0-4.468,1.44-4.468,4.32a4.047,4.047,0,0,0,4.27,4.319h6.8c4.717,0,6.852,3.078,6.852,6.852,0,3.277-1.539,7.15-7.249,7.15H109.2c-.993,0-1.936-.546-1.936-1.341,0-.5.4-1.291,1.887-1.291Z" transform="translate(-69.993 -44.251)" fill="#5a5a5a"/>
        <path id="パス_22" data-name="パス 22" d="M194.446,77.873H208.4c2.383,0,3.277-.795,3.277-3.227,0-2.929-2.036-4.419-5.859-4.419H202.1c-4.518,0-7.249,1.986-7.249,9.781,0,7.7,2.333,10.426,6.9,10.426h10.377c.645,0,1.639.3,1.639,1.241a1.482,1.482,0,0,1-1.639,1.341H201.6c-8.143,0-9.384-7-9.384-12.81,0-11.32,5.462-12.611,9.682-12.611h4.369c5.114,0,8.043,2.979,8.043,7.4,0,3.178-1.44,5.511-5.412,5.511H194.523" transform="translate(-125.833 -44.25)" fill="#5a5a5a"/>
        <path id="パス_23" data-name="パス 23" d="M373.132,77.873H387.09c2.383,0,3.277-.795,3.277-3.227,0-2.929-2.036-4.419-5.859-4.419h-3.724c-4.518,0-7.249,1.986-7.249,9.781,0,7.7,2.334,10.426,6.9,10.426h10.377c.646,0,1.638.3,1.638,1.241a1.482,1.482,0,0,1-1.638,1.341H380.288c-8.143,0-9.384-7-9.384-12.81,0-11.32,5.461-12.611,9.682-12.611h4.369c5.114,0,8.043,2.979,8.043,7.4,0,3.178-1.439,5.511-5.411,5.511H373.209" transform="translate(-242.808 -44.25)" fill="#5a5a5a"/>
        <path id="パス_24" data-name="パス 24" d="M291.909,77.218l3.128-4.905c1.787-2.681,3.177-4.717,7.2-4.717h1.589c.7,0,1.986.2,1.986,1.291,0,.943-.7,1.39-2.83,1.39-2.83,0-3.575.347-4.816,2.234l-6.256,9.5v5.642c0,2.234.347,2.731,1.986,2.731h5.312c1.142,0,1.738.645,1.738,1.291,0,.6-.546,1.341-1.738,1.341h-15.54c-.745,0-1.837-.4-1.837-1.341,0-.993,1.043-1.291,1.837-1.291h3.227c2.334,0,2.383-.7,2.383-3.128V73.306c0-2.334-.6-3.078-2.582-3.078h-2.731c-.943,0-2.035-.348-2.035-1.341,0-1.142,1.489-1.291,2.035-1.291h3.227c3.327,0,4.717,2.134,4.717,4.617Z" transform="translate(-184.497 -44.251)" fill="#5a5a5a"/>
        <path id="パス_25" data-name="パス 25" d="M615.977,79.56H605.3a4.966,4.966,0,0,0-5.263,5.114,5.78,5.78,0,0,0,5.858,5.759h4.817c2.482,0,5.262-1.142,5.262-5.312V75.589c0-3.575-1.787-5.362-5.262-5.362h-9.732c-.795,0-1.688-.4-1.688-1.341,0-.993.943-1.291,1.688-1.291h10.476a6.888,6.888,0,0,1,7.2,7.15V85.866c0,4.32-2.383,7.15-7.1,7.15H605.65a8.137,8.137,0,0,1-8.242-8.291,7.521,7.521,0,0,1,7.844-7.795h10.725Z" transform="translate(-391.087 -44.25)" fill="#5a5a5a"/>
        <path id="パス_26" data-name="パス 26" d="M530.545,66.182a1.157,1.157,0,0,1-1.157-1.157V62.191a3.376,3.376,0,0,1-1.858-2.7l-5.663-28.93a1.192,1.192,0,0,1,.728-1.358,1.108,1.108,0,0,1,1.372.494c.113.129.816.827,2.806.827a4.272,4.272,0,0,0,2.614-.654V24.991c-.049-.354-.348-1.409-2.109-1.415-1.939.006-2.1,1.295-2.107,1.442a1.157,1.157,0,1,1-2.307-.179,4.065,4.065,0,0,1,4.414-3.577c3.279.009,4.324,2.343,4.42,3.577,0,.03,0,.059,0,.089v4.944a4.271,4.271,0,0,0,2.614.654c1.99,0,2.693-.7,2.806-.827a1.108,1.108,0,0,1,1.372-.494,1.192,1.192,0,0,1,.728,1.358l-5.663,28.93a3.376,3.376,0,0,1-1.858,2.7v2.835a1.157,1.157,0,0,1-1.157,1.157m-5.924-33.6,5.19,26.514c.007.036.012.072.016.108.017.14.137.893.719.893s.7-.754.72-.9c0-.028.009-.069.014-.1l5.19-26.514a8.388,8.388,0,0,1-2.154.259,6.742,6.742,0,0,1-3.771-.96,6.742,6.742,0,0,1-3.771.96,8.386,8.386,0,0,1-2.153-.259" transform="translate(-341.62 -13.92)" fill="#699695"/>
        <path id="パス_27" data-name="パス 27" d="M470.336,66.182a1.157,1.157,0,0,1-1.157-1.157V62.191a3.376,3.376,0,0,1-1.858-2.7l-5.663-28.93a1.192,1.192,0,0,1,.728-1.358,1.108,1.108,0,0,1,1.372.494c.113.129.816.827,2.806.827a4.272,4.272,0,0,0,2.614-.654V24.991c-.049-.354-.348-1.409-2.109-1.415-1.8.005-2.07,1.119-2.108,1.461a1.15,1.15,0,0,1-1.242,1.054,1.165,1.165,0,0,1-1.063-1.253,4.065,4.065,0,0,1,4.414-3.576c3.279.009,4.324,2.343,4.42,3.577,0,.03,0,.059,0,.089v4.943a4.27,4.27,0,0,0,2.614.655c1.989,0,2.693-.7,2.806-.827a1.108,1.108,0,0,1,1.372-.494,1.192,1.192,0,0,1,.728,1.358l-5.663,28.93a3.376,3.376,0,0,1-1.858,2.7v2.835a1.157,1.157,0,0,1-1.157,1.157m-5.924-33.6L469.6,59.1c.007.036.012.072.016.108.017.14.137.893.719.893s.7-.754.72-.9c0-.028.009-.069.014-.1l5.19-26.514a8.387,8.387,0,0,1-2.153.259,6.744,6.744,0,0,1-3.771-.96,6.742,6.742,0,0,1-3.771.96,8.387,8.387,0,0,1-2.153-.259" transform="translate(-302.205 -13.92)" fill="#9eb998"/>
        <path id="パス_28" data-name="パス 28" d="M547.037,78.2c1.679,0,1.87-1.936,1.87-1.936l5.672-28.978s-.854,1.343-3.771,1.343-3.771-1.343-3.771-1.343" transform="translate(-358.112 -30.956)" fill="#699695"/>
        <path id="パス_29" data-name="パス 29" d="M532.741,47.287s-.854,1.343-3.771,1.343-3.771-1.343-3.771-1.343l5.672,28.977s.191,1.936,1.87,1.936" transform="translate(-343.816 -30.956)" fill="#699695"/>
        <path id="パス_30" data-name="パス 30" d="M25.783,92.506c-.418,0-.557.047-1.067.047-2-.093-3.248-.6-3.758-2.738a.148.148,0,0,0-.139-.14c-.093,0-.14.046-.232.14a8.949,8.949,0,0,1-7.1,3.2c-3.8,0-7.517-2.227-7.656-7.516V81.887c0-.325-.046-1.253-.046-9.651,0-1.949-.975-2.088-1.624-2.088-.232,0-.278.047-.742.047H1.3A1.2,1.2,0,0,1,0,68.942,1.314,1.314,0,0,1,1.346,67.6H4.624c2.413,0,3.851,1.3,3.851,3.572,0,1.532-.046,3.341-.046,5.012,0,2.366.046,4.5.093,5.382v3.612c.232,3.805,2.691,5.429,5.29,5.429,3.248,0,6.728-2.413,6.867-6.218V72.236c0-1.207-.325-2.041-1.485-2.088-.418,0-.325.047-.928.047H16.194a1.24,1.24,0,0,1-1.3-1.3,1.252,1.252,0,0,1,1.346-1.3h3.233c2.088,0,3.9,1.067,3.9,3.526-.046,3.387-.093,6.125-.093,8.77V83.5c0,4.547,0,6.217,1.716,6.357.325,0,.557-.047.789-.047H27.9a1.232,1.232,0,0,1,1.206,1.346,1.291,1.291,0,0,1-1.253,1.346Z" transform="translate(0 -44.251)" fill="#5a5a5a"/>
        <path id="パス_31" data-name="パス 31" d="M365.61,183.164c-21.232,0-41.4-5.573-55.346-15.29a1.054,1.054,0,1,1,1.2-1.729c13.6,9.477,33.33,14.912,54.141,14.912s40.544-5.435,54.141-14.912a1.054,1.054,0,0,1,1.2,1.729c-13.941,9.717-34.114,15.29-55.346,15.29" transform="translate(-202.816 -108.641)" fill="#a9a9a8"/>
        <path id="パス_32" data-name="パス 32" d="M100.759,14.994a1.085,1.085,0,0,1-.765-.314C91.956,6.733,80.3,2.176,68,2.176s-23.958,4.557-32,12.5a1.088,1.088,0,0,1-1.53-1.548C42.916,4.786,55.135,0,68,0s25.083,4.786,33.524,13.132a1.088,1.088,0,0,1-.765,1.862" transform="translate(-22.357)" fill="#a9a9a8"/>
      </g>
    </g>
    <text id="ユースレラ" transform="translate(40.407 61.669)" fill="#5a5a5a" font-size="5" font-family="HiraginoSans-W3, Hiragino Sans"><tspan x="0" y="0" letter-spacing="0.6em">ユースレ</tspan><tspan y="0">ラ</tspan></text>
    <g id="グループ_18" data-name="グループ 18">
      <g id="グループ_17" data-name="グループ 17" clip-path="url(#clip-path)">
        <path id="パス_33" data-name="パス 33" d="M488.353,78.2c1.679,0,1.87-1.936,1.87-1.936l5.671-28.978s-.854,1.343-3.771,1.343-3.771-1.343-3.771-1.343" transform="translate(-319.695 -30.956)" fill="#9eb998"/>
        <path id="パス_34" data-name="パス 34" d="M474.057,47.287s-.854,1.343-3.771,1.343-3.771-1.343-3.771-1.343l5.671,28.977s.191,1.936,1.871,1.936" transform="translate(-305.399 -30.956)" fill="#9eb998"/>
        <path id="パス_35" data-name="パス 35" d="M481.8,81.255h0l-2.32-32.992h5.069Z" transform="translate(-313.885 -31.595)" fill="#9eb998"/>
        <path id="パス_36" data-name="パス 36" d="M542.486,81.255h0l-2.32-32.992h5.069Z" transform="translate(-353.613 -31.595)" fill="#699695"/>
        <rect id="長方形_42" data-name="長方形 42" width="3.899" height="11.869" transform="translate(166.494 35.375)" fill="#9eb998"/>
      </g>
    </g>
  </g>
</svg>
