<svg xmlns="http://www.w3.org/2000/svg" xmlns:xlink="http://www.w3.org/1999/xlink" width="802" height="215.784" viewBox="0 0 802 215.784">
  <defs>
    <clipPath id="clip-path">
      <rect id="長方形_52" data-name="長方形 52" width="658.937" height="215.784" fill="none"/>
    </clipPath>
  </defs>
  <g id="グループ_33" data-name="グループ 33" transform="translate(-462 -1332)">
    <g id="グループ_32" data-name="グループ 32" transform="translate(462 1332)">
      <g id="グループ_29" data-name="グループ 29">
        <g id="グループ_28" data-name="グループ 28" clip-path="url(#clip-path)">
          <path id="パス_53" data-name="パス 53" d="M146.022,133.582c7.62,0,12.795-3.45,12.795-13.226,0-7.763-4.025-12.076-12.22-12.076H127.045c-10.781,0-20.126-5.751-20.126-20.414,0-14.807,8.482-20.27,21.133-20.27h29.615c2.3,0,5.607,1.006,5.607,4.025,0,2.587-2.588,4.024-5.463,4.024H127.62c-8.912,0-12.938,4.17-12.938,12.508s5.751,12.507,12.363,12.507h19.7c13.657,0,19.839,8.913,19.839,19.839,0,9.488-4.456,20.7-20.989,20.7H113.532c-2.875,0-5.607-1.581-5.607-3.882,0-1.437,1.151-3.737,5.463-3.737Z" fill="#5a5a5a"/>
          <path id="パス_54" data-name="パス 54" d="M198.669,97.354h40.416c6.9,0,9.488-2.3,9.488-9.345,0-8.482-5.9-12.8-16.964-12.8H220.827c-13.083,0-20.989,5.75-20.989,28.322,0,22.283,6.756,30.189,19.982,30.189h30.046c1.869,0,4.745.862,4.745,3.594,0,1.438-1.294,3.882-4.745,3.882H219.389c-23.577,0-27.171-20.271-27.171-37.091,0-32.777,15.814-36.515,28.034-36.515H232.9c14.808,0,23.289,8.626,23.289,21.42,0,9.2-4.169,15.957-15.67,15.957H198.891" fill="#5a5a5a"/>
          <path id="パス_55" data-name="パス 55" d="M377.355,97.354H417.77c6.9,0,9.488-2.3,9.488-9.345,0-8.482-5.894-12.8-16.964-12.8H399.512c-13.082,0-20.989,5.75-20.989,28.322,0,22.283,6.757,30.189,19.983,30.189h30.046c1.869,0,4.744.862,4.744,3.594,0,1.438-1.294,3.882-4.744,3.882H398.075C374.5,141.2,370.9,120.93,370.9,104.11c0-32.777,15.813-36.515,28.033-36.515h12.651c14.808,0,23.289,8.626,23.289,21.42,0,9.2-4.168,15.957-15.669,15.957H377.577" fill="#5a5a5a"/>
          <path id="パス_56" data-name="パス 56" d="M311.013,95.456l9.058-14.2c5.175-7.763,9.2-13.657,20.845-13.657h4.6c2.013,0,5.751.574,5.751,3.737,0,2.731-2.013,4.025-8.194,4.025-8.2,0-10.352,1.006-13.945,6.47l-18.115,27.511v16.336c0,6.469,1.006,7.907,5.751,7.907h15.382c3.307,0,5.032,1.869,5.032,3.737,0,1.726-1.581,3.882-5.032,3.882h-45c-2.156,0-5.319-1.15-5.319-3.882,0-2.875,3.019-3.737,5.319-3.737h9.344c6.757,0,6.9-2.013,6.9-9.058v-40.4c0-6.757-1.725-8.913-7.475-8.913h-7.908c-2.731,0-5.894-1.007-5.894-3.882,0-3.306,4.313-3.737,5.894-3.737h9.345c9.632,0,13.657,6.18,13.657,13.369Z" fill="#5a5a5a"/>
          <path id="パス_57" data-name="パス 57" d="M651.174,102.241H620.266c-8.625,0-15.239,5.751-15.239,14.808a16.735,16.735,0,0,0,16.963,16.676h13.947c7.187,0,15.237-3.306,15.237-15.381v-27.6c0-10.352-5.175-15.526-15.237-15.526H607.759c-2.3,0-4.888-1.151-4.888-3.882,0-2.875,2.731-3.738,4.888-3.738h30.333c13.514,0,20.846,9.919,20.846,20.7v32.2c0,12.508-6.9,20.7-20.559,20.7H621.273c-14.234,0-23.865-11.214-23.865-24.008,0-13.514,9.775-22.57,22.713-22.57h31.053Z" fill="#5a5a5a"/>
          <path id="パス_58" data-name="パス 58" d="M547.037,151.327a3.349,3.349,0,0,1-3.35-3.349V139.77c-3.63-1.524-5.092-5.418-5.379-7.811l-16.4-83.767a3.452,3.452,0,0,1,2.109-3.931,3.208,3.208,0,0,1,3.974,1.43c.327.374,2.363,2.4,8.124,2.4,4.384,0,6.61-1.172,7.569-1.9V32.058c-.141-1.024-1.008-4.081-6.108-4.1-5.615.016-6.067,3.749-6.1,4.175a3.35,3.35,0,1,1-6.679-.518c.276-3.571,3.3-10.331,12.78-10.356,9.494.025,12.521,6.785,12.8,10.356.007.086.01.172.01.259V46.192c.959.723,3.185,1.9,7.569,1.9,5.762,0,7.8-2.022,8.125-2.4a3.208,3.208,0,0,1,3.974-1.43,3.452,3.452,0,0,1,2.109,3.931l-16.4,83.767c-.287,2.393-1.75,6.287-5.38,7.811v8.208a3.349,3.349,0,0,1-3.35,3.349M529.883,54.036l15.027,76.773c.02.1.035.209.046.314.049.4.4,2.586,2.081,2.586s2.033-2.182,2.086-2.62c.01-.081.027-.2.042-.28l15.027-76.773a24.287,24.287,0,0,1-6.236.75c-5.347,0-8.8-1.4-10.919-2.781-2.114,1.385-5.572,2.781-10.919,2.781a24.284,24.284,0,0,1-6.235-.75" fill="#699695"/>
          <path id="パス_59" data-name="パス 59" d="M486.828,151.327a3.349,3.349,0,0,1-3.35-3.349V139.77c-3.63-1.524-5.092-5.418-5.379-7.811L461.7,48.192a3.452,3.452,0,0,1,2.109-3.931,3.207,3.207,0,0,1,3.974,1.43c.327.374,2.363,2.4,8.124,2.4,4.384,0,6.61-1.172,7.569-1.9V32.058c-.141-1.024-1.008-4.081-6.108-4.1-5.221.015-5.993,3.241-6.1,4.231a3.329,3.329,0,0,1-3.6,3.052,3.372,3.372,0,0,1-3.078-3.627c.277-3.57,3.3-10.33,12.78-10.355,9.494.025,12.521,6.785,12.8,10.356.007.086.01.172.01.259V46.191c.959.724,3.186,1.9,7.57,1.9,5.76,0,7.8-2.022,8.124-2.4a3.207,3.207,0,0,1,3.974-1.43,3.452,3.452,0,0,1,2.109,3.931l-16.4,83.767c-.287,2.393-1.75,6.287-5.38,7.811v8.208a3.349,3.349,0,0,1-3.35,3.349M469.674,54.036,484.7,130.809c.02.1.035.209.046.314.049.4.4,2.586,2.081,2.586s2.033-2.182,2.086-2.62c.01-.081.027-.2.042-.28l15.027-76.773a24.284,24.284,0,0,1-6.235.75c-5.347,0-8.806-1.4-10.92-2.781-2.114,1.385-5.572,2.781-10.919,2.781a24.284,24.284,0,0,1-6.235-.75" fill="#9eb998"/>
          <path id="パス_60" data-name="パス 60" d="M547.037,136.8c4.862,0,5.416-5.6,5.416-5.6l16.423-83.905s-2.472,3.888-10.92,3.888-10.919-3.888-10.919-3.888" fill="#699695"/>
          <path id="パス_61" data-name="パス 61" d="M547.037,47.287s-2.472,3.888-10.919,3.888S525.2,47.287,525.2,47.287l16.423,83.9s.553,5.606,5.415,5.606" fill="#699695"/>
          <path id="パス_62" data-name="パス 62" d="M74.654,139.723c-1.209,0-1.612.135-3.09.135-5.777-.268-9.405-1.745-10.882-7.927a.429.429,0,0,0-.4-.4c-.269,0-.4.134-.672.4-4.434,5.91-12.495,9.27-20.557,9.27-11.017,0-21.765-6.448-22.168-21.763V108.977c0-.941-.134-3.629-.134-27.946,0-5.644-2.822-6.047-4.7-6.047-.672,0-.806.136-2.149.136H3.761A3.488,3.488,0,0,1,0,71.492a3.806,3.806,0,0,1,3.9-3.9h9.493c6.986,0,11.151,3.761,11.151,10.343,0,4.435-.134,9.674-.134,14.512,0,6.851.134,13.032.269,15.585V118.5c.671,11.018,7.792,15.72,15.316,15.72,9.4,0,19.481-6.986,19.884-18V81.031c0-3.495-.94-5.911-4.3-6.047-1.21,0-.94.136-2.687.136h-6a3.589,3.589,0,0,1-3.762-3.763,3.626,3.626,0,0,1,3.9-3.761h9.36c6.045,0,11.285,3.09,11.285,10.209-.134,9.808-.268,17.734-.268,25.395v10.46c0,13.166,0,18,4.97,18.406.941,0,1.612-.135,2.284-.135h6.135c2.283,0,3.492,1.881,3.492,3.9a3.74,3.74,0,0,1-3.627,3.9Z" fill="#5a5a5a"/>
          <path id="パス_63" data-name="パス 63" d="M471.375,215.784c-61.478,0-119.888-16.138-160.255-44.274a3.051,3.051,0,1,1,3.489-5.006c39.368,27.44,96.507,43.178,156.766,43.178s117.4-15.738,156.767-43.178a3.051,3.051,0,0,1,3.488,5.006c-40.367,28.136-98.778,44.274-160.255,44.274" fill="#a9a9a8"/>
          <path id="パス_64" data-name="パス 64" d="M227.015,43.414a3.142,3.142,0,0,1-2.214-.91C201.527,19.5,167.761,6.3,132.159,6.3S62.789,19.5,39.516,42.5a3.15,3.15,0,0,1-4.429-4.481C59.53,13.859,94.911,0,132.159,0s72.627,13.859,97.07,38.023a3.15,3.15,0,0,1-2.214,5.391" fill="#a9a9a8"/>
        </g>
      </g>
      <text id="ユースレラ" transform="translate(117 185.981)" fill="#5a5a5a" font-size="21.22" font-family="HiraginoSans-W3, Hiragino Sans"><tspan x="0" y="0" letter-spacing="0.6em">ユースレ</tspan><tspan y="0">ラ</tspan></text>
      <g id="グループ_31" data-name="グループ 31">
        <g id="グループ_30" data-name="グループ 30" clip-path="url(#clip-path)">
          <path id="パス_65" data-name="パス 65" d="M488.353,136.8c4.862,0,5.416-5.6,5.416-5.6l16.422-83.905s-2.472,3.888-10.919,3.888-10.919-3.888-10.919-3.888" fill="#9eb998"/>
          <path id="パス_66" data-name="パス 66" d="M488.353,47.287s-2.472,3.888-10.919,3.888-10.919-3.888-10.919-3.888l16.422,83.9s.554,5.606,5.416,5.606" fill="#9eb998"/>
          <path id="パス_67" data-name="パス 67" d="M486.2,143.793h0l-6.718-95.53h14.678Z" fill="#9eb998"/>
          <path id="パス_68" data-name="パス 68" d="M546.884,143.793h0l-6.718-95.53h14.678Z" fill="#699695"/>
          <rect id="長方形_53" data-name="長方形 53" width="11.29" height="34.367" transform="translate(482.087 102.43)" fill="#9eb998"/>
        </g>
      </g>
    </g>
    <text id="とは" transform="translate(1164 1467)" fill="#636363" font-size="50" font-family="HiraKakuProN-W6, Hiragino Kaku Gothic ProN"><tspan x="0" y="0">とは</tspan></text>
  </g>
</svg>
